<svg width="32" height="32" xmlns="http://www.w3.org/2000/svg" preserveAspectRatio="xMidYMid meet" version="1.0">
 <metadata>Created by potrace 1.16, written by Peter Selinger 2001-2019</metadata>

 <g>
  <title>Layer 1</title>
  <g id="svg_1" fill="#000000" transform="translate(0 32) scale(0.015094 -0.013445)">
   <path fill="#ff00dc" id="svg_2" d="m960,2314c-59,-25 -798,-456 -835,-486c-18,-16 -46,-54 -62,-86l-28,-57l0,-495l0,-495l23,-51c13,-28 38,-65 55,-82c31,-29 757,-455 841,-493c51,-23 153,-25 204,-3c20,8 208,113 416,232c425,243 472,278 500,372c23,78 24,960 1,1037c-28,95 -64,122 -475,359c-206,119 -397,227 -425,240c-59,28 -160,32 -215,8zm197,-396c28,-28 36,-46 41,-88l7,-54l152,-88l153,-88l32,20c45,27 106,26 149,-3c91,-61 88,-183 -7,-239l-34,-20l0,-178l0,-178l34,-20c95,-56 98,-178 7,-239c-43,-29 -104,-30 -149,-3l-33,20l-154,-87l-154,-88l-1,-45c0,-80 -60,-140 -138,-140c-82,0 -132,47 -142,134l-5,49l-153,89c-147,86 -155,89 -173,72c-27,-24 -108,-30 -147,-10c-37,19 -67,60 -76,103c-11,47 23,117 68,144l36,21l0,178l0,178l-34,20c-95,56 -98,178 -7,239c43,29 104,30 149,3l33,-20l152,89l152,88l6,51c11,89 66,136 152,129c40,-3 56,-11 84,-39z"/>
   <path fill="#ff00dc" id="svg_3" d="m800,1629l-155,-91l0,-42c0,-51 -24,-90 -71,-118l-34,-20l0,-181c0,-100 4,-177 8,-171c7,6 382,656 409,707c6,11 8,12 -157,-84z"/>
   <path fill="#ff00dc" id="svg_4" d="m1162,1715c3,-5 97,-167 208,-360c111,-192 204,-352 206,-354c2,-2 4,77 4,177l0,181l-29,16c-44,22 -74,71 -75,120l-1,43l-135,78c-74,43 -146,85 -160,93c-13,9 -22,12 -18,6z"/>
   <path fill="#ff00dc" id="svg_5" d="m816,1324l-207,-358l18,-33l18,-33l415,0l415,0l19,34l18,34l-205,353l-204,354l-40,3l-41,3l-206,-357z"/>
   <path fill="#ff00dc" id="svg_6" d="m800,731l155,-89l31,19c42,25 107,25 150,-2l34,-20l157,90l158,91l-420,0l-420,0l155,-89z"/>
  </g>
 </g>
</svg>